<mxfile host="app.diagrams.net" agent="Mozilla/5.0 (Macintosh; Intel Mac OS X 10_15_7) AppleWebKit/537.36 (KHTML, like Gecko) Chrome/141.0.0.0 Safari/537.36" version="28.2.5">
  <diagram name="Page-1" id="MP-ecoluNpoKDVWM5_Uu">
    <mxGraphModel grid="1" page="1" gridSize="10" guides="1" tooltips="1" connect="1" arrows="1" fold="1" pageScale="1" pageWidth="850" pageHeight="1100" math="0" shadow="0">
      <root>
        <mxCell id="0" />
        <mxCell id="1" parent="0" />
        <mxCell id="l3cAIBGjcBq7NKEZEbhi-1" value="Card" style="swimlane;fontStyle=0;childLayout=stackLayout;horizontal=1;startSize=30;horizontalStack=0;resizeParent=1;resizeParentMax=0;resizeLast=0;collapsible=1;marginBottom=0;whiteSpace=wrap;html=1;" vertex="1" parent="1">
          <mxGeometry x="600" y="40" width="140" height="170" as="geometry" />
        </mxCell>
        <mxCell id="l3cAIBGjcBq7NKEZEbhi-2" value="var rank: Rank" style="text;strokeColor=none;fillColor=none;align=left;verticalAlign=middle;spacingLeft=4;spacingRight=4;overflow=hidden;points=[[0,0.5],[1,0.5]];portConstraint=eastwest;rotatable=0;whiteSpace=wrap;html=1;" vertex="1" parent="l3cAIBGjcBq7NKEZEbhi-1">
          <mxGeometry y="30" width="140" height="20" as="geometry" />
        </mxCell>
        <mxCell id="l3cAIBGjcBq7NKEZEbhi-3" value="var&amp;nbsp;suit: Suit" style="text;strokeColor=none;fillColor=none;align=left;verticalAlign=middle;spacingLeft=4;spacingRight=4;overflow=hidden;points=[[0,0.5],[1,0.5]];portConstraint=eastwest;rotatable=0;whiteSpace=wrap;html=1;" vertex="1" parent="l3cAIBGjcBq7NKEZEbhi-1">
          <mxGeometry y="50" width="140" height="20" as="geometry" />
        </mxCell>
        <mxCell id="l3cAIBGjcBq7NKEZEbhi-6" value="var&amp;nbsp;color: Color" style="text;strokeColor=none;fillColor=none;align=left;verticalAlign=middle;spacingLeft=4;spacingRight=4;overflow=hidden;points=[[0,0.5],[1,0.5]];portConstraint=eastwest;rotatable=0;whiteSpace=wrap;html=1;" vertex="1" parent="l3cAIBGjcBq7NKEZEbhi-1">
          <mxGeometry y="70" width="140" height="20" as="geometry" />
        </mxCell>
        <mxCell id="l3cAIBGjcBq7NKEZEbhi-29" value="var size: Size" style="text;strokeColor=none;fillColor=none;align=left;verticalAlign=middle;spacingLeft=4;spacingRight=4;overflow=hidden;points=[[0,0.5],[1,0.5]];portConstraint=eastwest;rotatable=0;whiteSpace=wrap;html=1;" vertex="1" parent="l3cAIBGjcBq7NKEZEbhi-1">
          <mxGeometry y="90" width="140" height="20" as="geometry" />
        </mxCell>
        <mxCell id="l3cAIBGjcBq7NKEZEbhi-30" value="var&amp;nbsp;isFaceUp: boolean" style="text;strokeColor=none;fillColor=none;align=left;verticalAlign=middle;spacingLeft=4;spacingRight=4;overflow=hidden;points=[[0,0.5],[1,0.5]];portConstraint=eastwest;rotatable=0;whiteSpace=wrap;html=1;" vertex="1" parent="l3cAIBGjcBq7NKEZEbhi-1">
          <mxGeometry y="110" width="140" height="20" as="geometry" />
        </mxCell>
        <mxCell id="l3cAIBGjcBq7NKEZEbhi-46" value="" style="endArrow=none;html=1;rounded=0;fontSize=12;startSize=8;endSize=8;curved=1;exitX=0.002;exitY=0.001;exitDx=0;exitDy=0;exitPerimeter=0;entryX=1.004;entryY=0.001;entryDx=0;entryDy=0;entryPerimeter=0;" edge="1" parent="l3cAIBGjcBq7NKEZEbhi-1" source="l3cAIBGjcBq7NKEZEbhi-31" target="l3cAIBGjcBq7NKEZEbhi-31">
          <mxGeometry width="50" height="50" relative="1" as="geometry">
            <mxPoint y="220" as="sourcePoint" />
            <mxPoint x="50" y="170" as="targetPoint" />
          </mxGeometry>
        </mxCell>
        <mxCell id="l3cAIBGjcBq7NKEZEbhi-31" value="void flip()" style="text;strokeColor=none;fillColor=none;align=left;verticalAlign=middle;spacingLeft=4;spacingRight=4;overflow=hidden;points=[[0,0.5],[1,0.5]];portConstraint=eastwest;rotatable=0;whiteSpace=wrap;html=1;" vertex="1" parent="l3cAIBGjcBq7NKEZEbhi-1">
          <mxGeometry y="130" width="140" height="20" as="geometry" />
        </mxCell>
        <mxCell id="l3cAIBGjcBq7NKEZEbhi-32" value="void draw(Position)" style="text;strokeColor=none;fillColor=none;align=left;verticalAlign=middle;spacingLeft=4;spacingRight=4;overflow=hidden;points=[[0,0.5],[1,0.5]];portConstraint=eastwest;rotatable=0;whiteSpace=wrap;html=1;" vertex="1" parent="l3cAIBGjcBq7NKEZEbhi-1">
          <mxGeometry y="150" width="140" height="20" as="geometry" />
        </mxCell>
        <mxCell id="l3cAIBGjcBq7NKEZEbhi-7" value="Rank (Enum)" style="swimlane;fontStyle=0;childLayout=stackLayout;horizontal=1;startSize=30;horizontalStack=0;resizeParent=1;resizeParentMax=0;resizeLast=0;collapsible=1;marginBottom=0;whiteSpace=wrap;html=1;" vertex="1" parent="1">
          <mxGeometry x="770" y="130" width="50" height="290" as="geometry" />
        </mxCell>
        <mxCell id="l3cAIBGjcBq7NKEZEbhi-8" value="A" style="text;strokeColor=none;fillColor=none;align=left;verticalAlign=middle;spacingLeft=4;spacingRight=4;overflow=hidden;points=[[0,0.5],[1,0.5]];portConstraint=eastwest;rotatable=0;whiteSpace=wrap;html=1;" vertex="1" parent="l3cAIBGjcBq7NKEZEbhi-7">
          <mxGeometry y="30" width="50" height="20" as="geometry" />
        </mxCell>
        <mxCell id="l3cAIBGjcBq7NKEZEbhi-9" value="2" style="text;strokeColor=none;fillColor=none;align=left;verticalAlign=middle;spacingLeft=4;spacingRight=4;overflow=hidden;points=[[0,0.5],[1,0.5]];portConstraint=eastwest;rotatable=0;whiteSpace=wrap;html=1;" vertex="1" parent="l3cAIBGjcBq7NKEZEbhi-7">
          <mxGeometry y="50" width="50" height="20" as="geometry" />
        </mxCell>
        <mxCell id="l3cAIBGjcBq7NKEZEbhi-12" value="3" style="text;strokeColor=none;fillColor=none;align=left;verticalAlign=middle;spacingLeft=4;spacingRight=4;overflow=hidden;points=[[0,0.5],[1,0.5]];portConstraint=eastwest;rotatable=0;whiteSpace=wrap;html=1;" vertex="1" parent="l3cAIBGjcBq7NKEZEbhi-7">
          <mxGeometry y="70" width="50" height="20" as="geometry" />
        </mxCell>
        <mxCell id="l3cAIBGjcBq7NKEZEbhi-13" value="4" style="text;strokeColor=none;fillColor=none;align=left;verticalAlign=middle;spacingLeft=4;spacingRight=4;overflow=hidden;points=[[0,0.5],[1,0.5]];portConstraint=eastwest;rotatable=0;whiteSpace=wrap;html=1;" vertex="1" parent="l3cAIBGjcBq7NKEZEbhi-7">
          <mxGeometry y="90" width="50" height="20" as="geometry" />
        </mxCell>
        <mxCell id="l3cAIBGjcBq7NKEZEbhi-14" value="5" style="text;strokeColor=none;fillColor=none;align=left;verticalAlign=middle;spacingLeft=4;spacingRight=4;overflow=hidden;points=[[0,0.5],[1,0.5]];portConstraint=eastwest;rotatable=0;whiteSpace=wrap;html=1;" vertex="1" parent="l3cAIBGjcBq7NKEZEbhi-7">
          <mxGeometry y="110" width="50" height="20" as="geometry" />
        </mxCell>
        <mxCell id="l3cAIBGjcBq7NKEZEbhi-15" value="6" style="text;strokeColor=none;fillColor=none;align=left;verticalAlign=middle;spacingLeft=4;spacingRight=4;overflow=hidden;points=[[0,0.5],[1,0.5]];portConstraint=eastwest;rotatable=0;whiteSpace=wrap;html=1;" vertex="1" parent="l3cAIBGjcBq7NKEZEbhi-7">
          <mxGeometry y="130" width="50" height="20" as="geometry" />
        </mxCell>
        <mxCell id="l3cAIBGjcBq7NKEZEbhi-16" value="7" style="text;strokeColor=none;fillColor=none;align=left;verticalAlign=middle;spacingLeft=4;spacingRight=4;overflow=hidden;points=[[0,0.5],[1,0.5]];portConstraint=eastwest;rotatable=0;whiteSpace=wrap;html=1;" vertex="1" parent="l3cAIBGjcBq7NKEZEbhi-7">
          <mxGeometry y="150" width="50" height="20" as="geometry" />
        </mxCell>
        <mxCell id="l3cAIBGjcBq7NKEZEbhi-17" value="8" style="text;strokeColor=none;fillColor=none;align=left;verticalAlign=middle;spacingLeft=4;spacingRight=4;overflow=hidden;points=[[0,0.5],[1,0.5]];portConstraint=eastwest;rotatable=0;whiteSpace=wrap;html=1;" vertex="1" parent="l3cAIBGjcBq7NKEZEbhi-7">
          <mxGeometry y="170" width="50" height="20" as="geometry" />
        </mxCell>
        <mxCell id="l3cAIBGjcBq7NKEZEbhi-18" value="9" style="text;strokeColor=none;fillColor=none;align=left;verticalAlign=middle;spacingLeft=4;spacingRight=4;overflow=hidden;points=[[0,0.5],[1,0.5]];portConstraint=eastwest;rotatable=0;whiteSpace=wrap;html=1;" vertex="1" parent="l3cAIBGjcBq7NKEZEbhi-7">
          <mxGeometry y="190" width="50" height="20" as="geometry" />
        </mxCell>
        <mxCell id="l3cAIBGjcBq7NKEZEbhi-20" value="10" style="text;strokeColor=none;fillColor=none;align=left;verticalAlign=middle;spacingLeft=4;spacingRight=4;overflow=hidden;points=[[0,0.5],[1,0.5]];portConstraint=eastwest;rotatable=0;whiteSpace=wrap;html=1;" vertex="1" parent="l3cAIBGjcBq7NKEZEbhi-7">
          <mxGeometry y="210" width="50" height="20" as="geometry" />
        </mxCell>
        <mxCell id="l3cAIBGjcBq7NKEZEbhi-21" value="J" style="text;strokeColor=none;fillColor=none;align=left;verticalAlign=middle;spacingLeft=4;spacingRight=4;overflow=hidden;points=[[0,0.5],[1,0.5]];portConstraint=eastwest;rotatable=0;whiteSpace=wrap;html=1;" vertex="1" parent="l3cAIBGjcBq7NKEZEbhi-7">
          <mxGeometry y="230" width="50" height="20" as="geometry" />
        </mxCell>
        <mxCell id="l3cAIBGjcBq7NKEZEbhi-22" value="Q" style="text;strokeColor=none;fillColor=none;align=left;verticalAlign=middle;spacingLeft=4;spacingRight=4;overflow=hidden;points=[[0,0.5],[1,0.5]];portConstraint=eastwest;rotatable=0;whiteSpace=wrap;html=1;" vertex="1" parent="l3cAIBGjcBq7NKEZEbhi-7">
          <mxGeometry y="250" width="50" height="20" as="geometry" />
        </mxCell>
        <mxCell id="l3cAIBGjcBq7NKEZEbhi-23" value="K" style="text;strokeColor=none;fillColor=none;align=left;verticalAlign=middle;spacingLeft=4;spacingRight=4;overflow=hidden;points=[[0,0.5],[1,0.5]];portConstraint=eastwest;rotatable=0;whiteSpace=wrap;html=1;" vertex="1" parent="l3cAIBGjcBq7NKEZEbhi-7">
          <mxGeometry y="270" width="50" height="20" as="geometry" />
        </mxCell>
        <mxCell id="l3cAIBGjcBq7NKEZEbhi-24" value="Suit (Enum)" style="swimlane;fontStyle=0;childLayout=stackLayout;horizontal=1;startSize=30;horizontalStack=0;resizeParent=1;resizeParentMax=0;resizeLast=0;collapsible=1;marginBottom=0;whiteSpace=wrap;html=1;" vertex="1" parent="1">
          <mxGeometry x="390" y="60" width="70" height="110" as="geometry" />
        </mxCell>
        <mxCell id="l3cAIBGjcBq7NKEZEbhi-25" value="Diamonds" style="text;strokeColor=none;fillColor=none;align=left;verticalAlign=middle;spacingLeft=4;spacingRight=4;overflow=hidden;points=[[0,0.5],[1,0.5]];portConstraint=eastwest;rotatable=0;whiteSpace=wrap;html=1;" vertex="1" parent="l3cAIBGjcBq7NKEZEbhi-24">
          <mxGeometry y="30" width="70" height="20" as="geometry" />
        </mxCell>
        <mxCell id="l3cAIBGjcBq7NKEZEbhi-26" value="Clubs" style="text;strokeColor=none;fillColor=none;align=left;verticalAlign=middle;spacingLeft=4;spacingRight=4;overflow=hidden;points=[[0,0.5],[1,0.5]];portConstraint=eastwest;rotatable=0;whiteSpace=wrap;html=1;" vertex="1" parent="l3cAIBGjcBq7NKEZEbhi-24">
          <mxGeometry y="50" width="70" height="20" as="geometry" />
        </mxCell>
        <mxCell id="l3cAIBGjcBq7NKEZEbhi-27" value="Heards" style="text;strokeColor=none;fillColor=none;align=left;verticalAlign=middle;spacingLeft=4;spacingRight=4;overflow=hidden;points=[[0,0.5],[1,0.5]];portConstraint=eastwest;rotatable=0;whiteSpace=wrap;html=1;" vertex="1" parent="l3cAIBGjcBq7NKEZEbhi-24">
          <mxGeometry y="70" width="70" height="20" as="geometry" />
        </mxCell>
        <mxCell id="l3cAIBGjcBq7NKEZEbhi-28" value="Spades" style="text;strokeColor=none;fillColor=none;align=left;verticalAlign=middle;spacingLeft=4;spacingRight=4;overflow=hidden;points=[[0,0.5],[1,0.5]];portConstraint=eastwest;rotatable=0;whiteSpace=wrap;html=1;" vertex="1" parent="l3cAIBGjcBq7NKEZEbhi-24">
          <mxGeometry y="90" width="70" height="20" as="geometry" />
        </mxCell>
        <mxCell id="l3cAIBGjcBq7NKEZEbhi-35" value="Size" style="swimlane;fontStyle=0;childLayout=stackLayout;horizontal=1;startSize=30;horizontalStack=0;resizeParent=1;resizeParentMax=0;resizeLast=0;collapsible=1;marginBottom=0;whiteSpace=wrap;html=1;" vertex="1" parent="1">
          <mxGeometry x="470" y="10" width="90" height="70" as="geometry" />
        </mxCell>
        <mxCell id="l3cAIBGjcBq7NKEZEbhi-36" value="var height: int" style="text;strokeColor=none;fillColor=none;align=left;verticalAlign=middle;spacingLeft=4;spacingRight=4;overflow=hidden;points=[[0,0.5],[1,0.5]];portConstraint=eastwest;rotatable=0;whiteSpace=wrap;html=1;" vertex="1" parent="l3cAIBGjcBq7NKEZEbhi-35">
          <mxGeometry y="30" width="90" height="20" as="geometry" />
        </mxCell>
        <mxCell id="l3cAIBGjcBq7NKEZEbhi-37" value="var width: int" style="text;strokeColor=none;fillColor=none;align=left;verticalAlign=middle;spacingLeft=4;spacingRight=4;overflow=hidden;points=[[0,0.5],[1,0.5]];portConstraint=eastwest;rotatable=0;whiteSpace=wrap;html=1;" vertex="1" parent="l3cAIBGjcBq7NKEZEbhi-35">
          <mxGeometry y="50" width="90" height="20" as="geometry" />
        </mxCell>
        <mxCell id="l3cAIBGjcBq7NKEZEbhi-40" value="Color (Enum)" style="swimlane;fontStyle=0;childLayout=stackLayout;horizontal=1;startSize=30;horizontalStack=0;resizeParent=1;resizeParentMax=0;resizeLast=0;collapsible=1;marginBottom=0;whiteSpace=wrap;html=1;" vertex="1" parent="1">
          <mxGeometry x="765" y="30" width="50" height="70" as="geometry" />
        </mxCell>
        <mxCell id="l3cAIBGjcBq7NKEZEbhi-41" value="Black" style="text;strokeColor=none;fillColor=none;align=left;verticalAlign=middle;spacingLeft=4;spacingRight=4;overflow=hidden;points=[[0,0.5],[1,0.5]];portConstraint=eastwest;rotatable=0;whiteSpace=wrap;html=1;" vertex="1" parent="l3cAIBGjcBq7NKEZEbhi-40">
          <mxGeometry y="30" width="50" height="20" as="geometry" />
        </mxCell>
        <mxCell id="l3cAIBGjcBq7NKEZEbhi-42" value="Red" style="text;strokeColor=none;fillColor=none;align=left;verticalAlign=middle;spacingLeft=4;spacingRight=4;overflow=hidden;points=[[0,0.5],[1,0.5]];portConstraint=eastwest;rotatable=0;whiteSpace=wrap;html=1;" vertex="1" parent="l3cAIBGjcBq7NKEZEbhi-40">
          <mxGeometry y="50" width="50" height="20" as="geometry" />
        </mxCell>
        <mxCell id="l3cAIBGjcBq7NKEZEbhi-47" value="Link" style="swimlane;fontStyle=0;childLayout=stackLayout;horizontal=1;startSize=30;horizontalStack=0;resizeParent=1;resizeParentMax=0;resizeLast=0;collapsible=1;marginBottom=0;whiteSpace=wrap;html=1;" vertex="1" parent="1">
          <mxGeometry x="470" y="140" width="110" height="70" as="geometry" />
        </mxCell>
        <mxCell id="l3cAIBGjcBq7NKEZEbhi-48" value="var value: Object" style="text;strokeColor=none;fillColor=none;align=left;verticalAlign=middle;spacingLeft=4;spacingRight=4;overflow=hidden;points=[[0,0.5],[1,0.5]];portConstraint=eastwest;rotatable=0;whiteSpace=wrap;html=1;" vertex="1" parent="l3cAIBGjcBq7NKEZEbhi-47">
          <mxGeometry y="30" width="110" height="20" as="geometry" />
        </mxCell>
        <mxCell id="l3cAIBGjcBq7NKEZEbhi-49" value="var&amp;nbsp;next: Link" style="text;strokeColor=none;fillColor=none;align=left;verticalAlign=middle;spacingLeft=4;spacingRight=4;overflow=hidden;points=[[0,0.5],[1,0.5]];portConstraint=eastwest;rotatable=0;whiteSpace=wrap;html=1;" vertex="1" parent="l3cAIBGjcBq7NKEZEbhi-47">
          <mxGeometry y="50" width="110" height="20" as="geometry" />
        </mxCell>
        <mxCell id="l3cAIBGjcBq7NKEZEbhi-56" value="LinkedList" style="swimlane;fontStyle=0;childLayout=stackLayout;horizontal=1;startSize=30;horizontalStack=0;resizeParent=1;resizeParentMax=0;resizeLast=0;collapsible=1;marginBottom=0;whiteSpace=wrap;html=1;" vertex="1" parent="1">
          <mxGeometry x="630" y="250" width="135" height="150" as="geometry" />
        </mxCell>
        <mxCell id="l3cAIBGjcBq7NKEZEbhi-57" value="var firstLink: Link" style="text;strokeColor=none;fillColor=none;align=left;verticalAlign=middle;spacingLeft=4;spacingRight=4;overflow=hidden;points=[[0,0.5],[1,0.5]];portConstraint=eastwest;rotatable=0;whiteSpace=wrap;html=1;" vertex="1" parent="l3cAIBGjcBq7NKEZEbhi-56">
          <mxGeometry y="30" width="135" height="20" as="geometry" />
        </mxCell>
        <mxCell id="l3cAIBGjcBq7NKEZEbhi-63" value="var iterator: ListIterator" style="text;strokeColor=none;fillColor=none;align=left;verticalAlign=middle;spacingLeft=4;spacingRight=4;overflow=hidden;points=[[0,0.5],[1,0.5]];portConstraint=eastwest;rotatable=0;whiteSpace=wrap;html=1;" vertex="1" parent="l3cAIBGjcBq7NKEZEbhi-56">
          <mxGeometry y="50" width="135" height="20" as="geometry" />
        </mxCell>
        <mxCell id="l3cAIBGjcBq7NKEZEbhi-61" value="void add(Object)" style="text;strokeColor=none;fillColor=none;align=left;verticalAlign=middle;spacingLeft=4;spacingRight=4;overflow=hidden;points=[[0,0.5],[1,0.5]];portConstraint=eastwest;rotatable=0;whiteSpace=wrap;html=1;" vertex="1" parent="l3cAIBGjcBq7NKEZEbhi-56">
          <mxGeometry y="70" width="135" height="20" as="geometry" />
        </mxCell>
        <mxCell id="l3cAIBGjcBq7NKEZEbhi-58" value="void pop()" style="text;strokeColor=none;fillColor=none;align=left;verticalAlign=middle;spacingLeft=4;spacingRight=4;overflow=hidden;points=[[0,0.5],[1,0.5]];portConstraint=eastwest;rotatable=0;whiteSpace=wrap;html=1;" vertex="1" parent="l3cAIBGjcBq7NKEZEbhi-56">
          <mxGeometry y="90" width="135" height="20" as="geometry" />
        </mxCell>
        <mxCell id="l3cAIBGjcBq7NKEZEbhi-59" value="Object front()" style="text;strokeColor=none;fillColor=none;align=left;verticalAlign=middle;spacingLeft=4;spacingRight=4;overflow=hidden;points=[[0,0.5],[1,0.5]];portConstraint=eastwest;rotatable=0;whiteSpace=wrap;html=1;" vertex="1" parent="l3cAIBGjcBq7NKEZEbhi-56">
          <mxGeometry y="110" width="135" height="20" as="geometry" />
        </mxCell>
        <mxCell id="l3cAIBGjcBq7NKEZEbhi-60" value="boolean empty()" style="text;strokeColor=none;fillColor=none;align=left;verticalAlign=middle;spacingLeft=4;spacingRight=4;overflow=hidden;points=[[0,0.5],[1,0.5]];portConstraint=eastwest;rotatable=0;whiteSpace=wrap;html=1;" vertex="1" parent="l3cAIBGjcBq7NKEZEbhi-56">
          <mxGeometry y="130" width="135" height="20" as="geometry" />
        </mxCell>
        <mxCell id="l3cAIBGjcBq7NKEZEbhi-62" value="" style="endArrow=none;html=1;rounded=0;fontSize=12;startSize=8;endSize=8;curved=1;exitX=-0.002;exitY=0.009;exitDx=0;exitDy=0;exitPerimeter=0;entryX=0.998;entryY=-0.001;entryDx=0;entryDy=0;entryPerimeter=0;" edge="1" parent="l3cAIBGjcBq7NKEZEbhi-56" source="l3cAIBGjcBq7NKEZEbhi-61" target="l3cAIBGjcBq7NKEZEbhi-61">
          <mxGeometry width="50" height="50" relative="1" as="geometry">
            <mxPoint x="70" y="50" as="sourcePoint" />
            <mxPoint x="120" as="targetPoint" />
          </mxGeometry>
        </mxCell>
        <mxCell id="l3cAIBGjcBq7NKEZEbhi-64" value="ListIterator" style="swimlane;fontStyle=0;childLayout=stackLayout;horizontal=1;startSize=30;horizontalStack=0;resizeParent=1;resizeParentMax=0;resizeLast=0;collapsible=1;marginBottom=0;whiteSpace=wrap;html=1;" vertex="1" parent="1">
          <mxGeometry x="630" y="460" width="100" height="130" as="geometry" />
        </mxCell>
        <mxCell id="l3cAIBGjcBq7NKEZEbhi-65" value="var current&lt;span style=&quot;background-color: transparent; color: light-dark(rgb(0, 0, 0), rgb(255, 255, 255));&quot;&gt;: Link&lt;/span&gt;" style="text;strokeColor=none;fillColor=none;align=left;verticalAlign=middle;spacingLeft=4;spacingRight=4;overflow=hidden;points=[[0,0.5],[1,0.5]];portConstraint=eastwest;rotatable=0;whiteSpace=wrap;html=1;" vertex="1" parent="l3cAIBGjcBq7NKEZEbhi-64">
          <mxGeometry y="30" width="100" height="20" as="geometry" />
        </mxCell>
        <mxCell id="l3cAIBGjcBq7NKEZEbhi-69" value="" style="endArrow=none;html=1;rounded=0;fontSize=12;startSize=8;endSize=8;curved=1;exitX=-0.004;exitY=0.004;exitDx=0;exitDy=0;exitPerimeter=0;entryX=0.997;entryY=0.004;entryDx=0;entryDy=0;entryPerimeter=0;" edge="1" parent="l3cAIBGjcBq7NKEZEbhi-64" source="l3cAIBGjcBq7NKEZEbhi-66" target="l3cAIBGjcBq7NKEZEbhi-66">
          <mxGeometry width="50" height="50" relative="1" as="geometry">
            <mxPoint x="30" y="100" as="sourcePoint" />
            <mxPoint x="80" y="50" as="targetPoint" />
          </mxGeometry>
        </mxCell>
        <mxCell id="l3cAIBGjcBq7NKEZEbhi-66" value="&lt;span style=&quot;text-align: center;&quot;&gt;ListIterator(Link)&lt;/span&gt;" style="text;strokeColor=none;fillColor=none;align=left;verticalAlign=middle;spacingLeft=4;spacingRight=4;overflow=hidden;points=[[0,0.5],[1,0.5]];portConstraint=eastwest;rotatable=0;whiteSpace=wrap;html=1;" vertex="1" parent="l3cAIBGjcBq7NKEZEbhi-64">
          <mxGeometry y="50" width="100" height="20" as="geometry" />
        </mxCell>
        <mxCell id="l3cAIBGjcBq7NKEZEbhi-100" value="Object current()" style="text;strokeColor=none;fillColor=none;align=left;verticalAlign=middle;spacingLeft=4;spacingRight=4;overflow=hidden;points=[[0,0.5],[1,0.5]];portConstraint=eastwest;rotatable=0;whiteSpace=wrap;html=1;" vertex="1" parent="l3cAIBGjcBq7NKEZEbhi-64">
          <mxGeometry y="70" width="100" height="20" as="geometry" />
        </mxCell>
        <mxCell id="l3cAIBGjcBq7NKEZEbhi-67" value="void next()" style="text;strokeColor=none;fillColor=none;align=left;verticalAlign=middle;spacingLeft=4;spacingRight=4;overflow=hidden;points=[[0,0.5],[1,0.5]];portConstraint=eastwest;rotatable=0;whiteSpace=wrap;html=1;" vertex="1" parent="l3cAIBGjcBq7NKEZEbhi-64">
          <mxGeometry y="90" width="100" height="20" as="geometry" />
        </mxCell>
        <mxCell id="l3cAIBGjcBq7NKEZEbhi-68" value="boolean atEnd()" style="text;strokeColor=none;fillColor=none;align=left;verticalAlign=middle;spacingLeft=4;spacingRight=4;overflow=hidden;points=[[0,0.5],[1,0.5]];portConstraint=eastwest;rotatable=0;whiteSpace=wrap;html=1;" vertex="1" parent="l3cAIBGjcBq7NKEZEbhi-64">
          <mxGeometry y="110" width="100" height="20" as="geometry" />
        </mxCell>
        <mxCell id="l3cAIBGjcBq7NKEZEbhi-101" value="" style="endArrow=none;html=1;rounded=0;fontSize=12;startSize=8;endSize=8;curved=1;exitX=0;exitY=-0.003;exitDx=0;exitDy=0;exitPerimeter=0;entryX=0.998;entryY=-0.003;entryDx=0;entryDy=0;entryPerimeter=0;" edge="1" parent="l3cAIBGjcBq7NKEZEbhi-64" source="l3cAIBGjcBq7NKEZEbhi-100" target="l3cAIBGjcBq7NKEZEbhi-100">
          <mxGeometry width="50" height="50" relative="1" as="geometry">
            <mxPoint x="10" y="90" as="sourcePoint" />
            <mxPoint x="60" y="40" as="targetPoint" />
          </mxGeometry>
        </mxCell>
        <mxCell id="l3cAIBGjcBq7NKEZEbhi-70" value="CardPile" style="swimlane;fontStyle=0;childLayout=stackLayout;horizontal=1;startSize=30;horizontalStack=0;resizeParent=1;resizeParentMax=0;resizeLast=0;collapsible=1;marginBottom=0;whiteSpace=wrap;html=1;" vertex="1" parent="1">
          <mxGeometry x="225" y="20" width="150" height="230" as="geometry" />
        </mxCell>
        <mxCell id="l3cAIBGjcBq7NKEZEbhi-71" value="var cardList: LinkedList" style="text;strokeColor=none;fillColor=none;align=left;verticalAlign=middle;spacingLeft=4;spacingRight=4;overflow=hidden;points=[[0,0.5],[1,0.5]];portConstraint=eastwest;rotatable=0;whiteSpace=wrap;html=1;" vertex="1" parent="l3cAIBGjcBq7NKEZEbhi-70">
          <mxGeometry y="30" width="150" height="20" as="geometry" />
        </mxCell>
        <mxCell id="l3cAIBGjcBq7NKEZEbhi-72" value="var position: Position" style="text;strokeColor=none;fillColor=none;align=left;verticalAlign=middle;spacingLeft=4;spacingRight=4;overflow=hidden;points=[[0,0.5],[1,0.5]];portConstraint=eastwest;rotatable=0;whiteSpace=wrap;html=1;" vertex="1" parent="l3cAIBGjcBq7NKEZEbhi-70">
          <mxGeometry y="50" width="150" height="20" as="geometry" />
        </mxCell>
        <mxCell id="l3cAIBGjcBq7NKEZEbhi-73" value="CardPile(Position)" style="text;strokeColor=none;fillColor=none;align=left;verticalAlign=middle;spacingLeft=4;spacingRight=4;overflow=hidden;points=[[0,0.5],[1,0.5]];portConstraint=eastwest;rotatable=0;whiteSpace=wrap;html=1;" vertex="1" parent="l3cAIBGjcBq7NKEZEbhi-70">
          <mxGeometry y="70" width="150" height="20" as="geometry" />
        </mxCell>
        <mxCell id="l3cAIBGjcBq7NKEZEbhi-83" value="void add(Card)" style="text;strokeColor=none;fillColor=none;align=left;verticalAlign=middle;spacingLeft=4;spacingRight=4;overflow=hidden;points=[[0,0.5],[1,0.5]];portConstraint=eastwest;rotatable=0;whiteSpace=wrap;html=1;" vertex="1" parent="l3cAIBGjcBq7NKEZEbhi-70">
          <mxGeometry y="90" width="150" height="20" as="geometry" />
        </mxCell>
        <mxCell id="l3cAIBGjcBq7NKEZEbhi-96" value="Card top()" style="text;strokeColor=none;fillColor=none;align=left;verticalAlign=middle;spacingLeft=4;spacingRight=4;overflow=hidden;points=[[0,0.5],[1,0.5]];portConstraint=eastwest;rotatable=0;whiteSpace=wrap;html=1;" vertex="1" parent="l3cAIBGjcBq7NKEZEbhi-70">
          <mxGeometry y="110" width="150" height="20" as="geometry" />
        </mxCell>
        <mxCell id="l3cAIBGjcBq7NKEZEbhi-74" value="Card pop()" style="text;strokeColor=none;fillColor=none;align=left;verticalAlign=middle;spacingLeft=4;spacingRight=4;overflow=hidden;points=[[0,0.5],[1,0.5]];portConstraint=eastwest;rotatable=0;whiteSpace=wrap;html=1;" vertex="1" parent="l3cAIBGjcBq7NKEZEbhi-70">
          <mxGeometry y="130" width="150" height="20" as="geometry" />
        </mxCell>
        <mxCell id="l3cAIBGjcBq7NKEZEbhi-76" value="boolean empty()" style="text;strokeColor=none;fillColor=none;align=left;verticalAlign=middle;spacingLeft=4;spacingRight=4;overflow=hidden;points=[[0,0.5],[1,0.5]];portConstraint=eastwest;rotatable=0;whiteSpace=wrap;html=1;" vertex="1" parent="l3cAIBGjcBq7NKEZEbhi-70">
          <mxGeometry y="150" width="150" height="20" as="geometry" />
        </mxCell>
        <mxCell id="l3cAIBGjcBq7NKEZEbhi-81" value="boolean canTake()" style="text;strokeColor=none;fillColor=none;align=left;verticalAlign=middle;spacingLeft=4;spacingRight=4;overflow=hidden;points=[[0,0.5],[1,0.5]];portConstraint=eastwest;rotatable=0;whiteSpace=wrap;html=1;" vertex="1" parent="l3cAIBGjcBq7NKEZEbhi-70">
          <mxGeometry y="170" width="150" height="20" as="geometry" />
        </mxCell>
        <mxCell id="l3cAIBGjcBq7NKEZEbhi-82" value="void display()" style="text;strokeColor=none;fillColor=none;align=left;verticalAlign=middle;spacingLeft=4;spacingRight=4;overflow=hidden;points=[[0,0.5],[1,0.5]];portConstraint=eastwest;rotatable=0;whiteSpace=wrap;html=1;" vertex="1" parent="l3cAIBGjcBq7NKEZEbhi-70">
          <mxGeometry y="190" width="150" height="20" as="geometry" />
        </mxCell>
        <mxCell id="l3cAIBGjcBq7NKEZEbhi-84" value="void select()" style="text;strokeColor=none;fillColor=none;align=left;verticalAlign=middle;spacingLeft=4;spacingRight=4;overflow=hidden;points=[[0,0.5],[1,0.5]];portConstraint=eastwest;rotatable=0;whiteSpace=wrap;html=1;" vertex="1" parent="l3cAIBGjcBq7NKEZEbhi-70">
          <mxGeometry y="210" width="150" height="20" as="geometry" />
        </mxCell>
        <mxCell id="l3cAIBGjcBq7NKEZEbhi-77" value="" style="endArrow=none;html=1;rounded=0;fontSize=12;startSize=8;endSize=8;curved=1;exitX=-0.002;exitY=0.009;exitDx=0;exitDy=0;exitPerimeter=0;entryX=0.998;entryY=-0.001;entryDx=0;entryDy=0;entryPerimeter=0;" edge="1" parent="l3cAIBGjcBq7NKEZEbhi-70" source="l3cAIBGjcBq7NKEZEbhi-73" target="l3cAIBGjcBq7NKEZEbhi-73">
          <mxGeometry width="50" height="50" relative="1" as="geometry">
            <mxPoint x="70" y="50" as="sourcePoint" />
            <mxPoint x="120" as="targetPoint" />
          </mxGeometry>
        </mxCell>
        <mxCell id="l3cAIBGjcBq7NKEZEbhi-97" value="" style="endArrow=none;html=1;rounded=0;fontSize=12;startSize=8;endSize=8;curved=1;exitX=0.001;exitY=-0.005;exitDx=0;exitDy=0;exitPerimeter=0;entryX=0.999;entryY=-0.001;entryDx=0;entryDy=0;entryPerimeter=0;" edge="1" parent="l3cAIBGjcBq7NKEZEbhi-70" source="l3cAIBGjcBq7NKEZEbhi-83" target="l3cAIBGjcBq7NKEZEbhi-83">
          <mxGeometry width="50" height="50" relative="1" as="geometry">
            <mxPoint x="30" y="160" as="sourcePoint" />
            <mxPoint x="80" y="110" as="targetPoint" />
          </mxGeometry>
        </mxCell>
        <mxCell id="l3cAIBGjcBq7NKEZEbhi-78" value="Position" style="swimlane;fontStyle=0;childLayout=stackLayout;horizontal=1;startSize=30;horizontalStack=0;resizeParent=1;resizeParentMax=0;resizeLast=0;collapsible=1;marginBottom=0;whiteSpace=wrap;html=1;" vertex="1" parent="1">
          <mxGeometry x="430" y="310" width="60" height="70" as="geometry" />
        </mxCell>
        <mxCell id="l3cAIBGjcBq7NKEZEbhi-79" value="var x: int" style="text;strokeColor=none;fillColor=none;align=left;verticalAlign=middle;spacingLeft=4;spacingRight=4;overflow=hidden;points=[[0,0.5],[1,0.5]];portConstraint=eastwest;rotatable=0;whiteSpace=wrap;html=1;" vertex="1" parent="l3cAIBGjcBq7NKEZEbhi-78">
          <mxGeometry y="30" width="60" height="20" as="geometry" />
        </mxCell>
        <mxCell id="l3cAIBGjcBq7NKEZEbhi-80" value="var y: int" style="text;strokeColor=none;fillColor=none;align=left;verticalAlign=middle;spacingLeft=4;spacingRight=4;overflow=hidden;points=[[0,0.5],[1,0.5]];portConstraint=eastwest;rotatable=0;whiteSpace=wrap;html=1;" vertex="1" parent="l3cAIBGjcBq7NKEZEbhi-78">
          <mxGeometry y="50" width="60" height="20" as="geometry" />
        </mxCell>
        <mxCell id="l3cAIBGjcBq7NKEZEbhi-85" value="SuitPile" style="swimlane;fontStyle=0;childLayout=stackLayout;horizontal=1;startSize=30;horizontalStack=0;resizeParent=1;resizeParentMax=0;resizeLast=0;collapsible=1;marginBottom=0;whiteSpace=wrap;html=1;" vertex="1" parent="1">
          <mxGeometry x="310" y="310" width="110" height="70" as="geometry" />
        </mxCell>
        <mxCell id="l3cAIBGjcBq7NKEZEbhi-86" value="&lt;span style=&quot;text-align: center;&quot;&gt;SuitPile(Position)&lt;/span&gt;" style="text;strokeColor=none;fillColor=none;align=left;verticalAlign=middle;spacingLeft=4;spacingRight=4;overflow=hidden;points=[[0,0.5],[1,0.5]];portConstraint=eastwest;rotatable=0;whiteSpace=wrap;html=1;" vertex="1" parent="l3cAIBGjcBq7NKEZEbhi-85">
          <mxGeometry y="30" width="110" height="20" as="geometry" />
        </mxCell>
        <mxCell id="l3cAIBGjcBq7NKEZEbhi-87" value="" style="endArrow=none;html=1;rounded=0;fontSize=12;startSize=8;endSize=8;curved=1;exitX=-0.004;exitY=0.004;exitDx=0;exitDy=0;exitPerimeter=0;entryX=0.997;entryY=0.004;entryDx=0;entryDy=0;entryPerimeter=0;" edge="1" parent="l3cAIBGjcBq7NKEZEbhi-85" source="l3cAIBGjcBq7NKEZEbhi-88" target="l3cAIBGjcBq7NKEZEbhi-88">
          <mxGeometry width="50" height="50" relative="1" as="geometry">
            <mxPoint x="30" y="100" as="sourcePoint" />
            <mxPoint x="80" y="50" as="targetPoint" />
          </mxGeometry>
        </mxCell>
        <mxCell id="l3cAIBGjcBq7NKEZEbhi-88" value="boolean canTake()" style="text;strokeColor=none;fillColor=none;align=left;verticalAlign=middle;spacingLeft=4;spacingRight=4;overflow=hidden;points=[[0,0.5],[1,0.5]];portConstraint=eastwest;rotatable=0;whiteSpace=wrap;html=1;" vertex="1" parent="l3cAIBGjcBq7NKEZEbhi-85">
          <mxGeometry y="50" width="110" height="20" as="geometry" />
        </mxCell>
        <mxCell id="l3cAIBGjcBq7NKEZEbhi-102" value="DeckPile" style="swimlane;fontStyle=0;childLayout=stackLayout;horizontal=1;startSize=30;horizontalStack=0;resizeParent=1;resizeParentMax=0;resizeLast=0;collapsible=1;marginBottom=0;whiteSpace=wrap;html=1;" vertex="1" parent="1">
          <mxGeometry x="500" y="300" width="120" height="90" as="geometry" />
        </mxCell>
        <mxCell id="l3cAIBGjcBq7NKEZEbhi-103" value="&lt;span style=&quot;text-align: center;&quot;&gt;DeckPile&lt;/span&gt;&lt;span style=&quot;text-align: center;&quot;&gt;(Position)&lt;/span&gt;" style="text;strokeColor=none;fillColor=none;align=left;verticalAlign=middle;spacingLeft=4;spacingRight=4;overflow=hidden;points=[[0,0.5],[1,0.5]];portConstraint=eastwest;rotatable=0;whiteSpace=wrap;html=1;" vertex="1" parent="l3cAIBGjcBq7NKEZEbhi-102">
          <mxGeometry y="30" width="120" height="20" as="geometry" />
        </mxCell>
        <mxCell id="l3cAIBGjcBq7NKEZEbhi-104" value="" style="endArrow=none;html=1;rounded=0;fontSize=12;startSize=8;endSize=8;curved=1;exitX=-0.004;exitY=0.004;exitDx=0;exitDy=0;exitPerimeter=0;entryX=0.997;entryY=0.004;entryDx=0;entryDy=0;entryPerimeter=0;" edge="1" parent="l3cAIBGjcBq7NKEZEbhi-102" source="l3cAIBGjcBq7NKEZEbhi-105" target="l3cAIBGjcBq7NKEZEbhi-105">
          <mxGeometry width="50" height="50" relative="1" as="geometry">
            <mxPoint x="30" y="100" as="sourcePoint" />
            <mxPoint x="80" y="50" as="targetPoint" />
          </mxGeometry>
        </mxCell>
        <mxCell id="l3cAIBGjcBq7NKEZEbhi-105" value="boolean canTake()" style="text;strokeColor=none;fillColor=none;align=left;verticalAlign=middle;spacingLeft=4;spacingRight=4;overflow=hidden;points=[[0,0.5],[1,0.5]];portConstraint=eastwest;rotatable=0;whiteSpace=wrap;html=1;" vertex="1" parent="l3cAIBGjcBq7NKEZEbhi-102">
          <mxGeometry y="50" width="120" height="20" as="geometry" />
        </mxCell>
        <mxCell id="l3cAIBGjcBq7NKEZEbhi-110" value="void select(Position)" style="text;strokeColor=none;fillColor=none;align=left;verticalAlign=middle;spacingLeft=4;spacingRight=4;overflow=hidden;points=[[0,0.5],[1,0.5]];portConstraint=eastwest;rotatable=0;whiteSpace=wrap;html=1;" vertex="1" parent="l3cAIBGjcBq7NKEZEbhi-102">
          <mxGeometry y="70" width="120" height="20" as="geometry" />
        </mxCell>
        <mxCell id="l3cAIBGjcBq7NKEZEbhi-106" value="DiscardPile" style="swimlane;fontStyle=0;childLayout=stackLayout;horizontal=1;startSize=30;horizontalStack=0;resizeParent=1;resizeParentMax=0;resizeLast=0;collapsible=1;marginBottom=0;whiteSpace=wrap;html=1;" vertex="1" parent="1">
          <mxGeometry x="170" y="300" width="120" height="90" as="geometry" />
        </mxCell>
        <mxCell id="l3cAIBGjcBq7NKEZEbhi-107" value="&lt;span style=&quot;text-align: center;&quot;&gt;DiscardPile&lt;/span&gt;&lt;span style=&quot;text-align: center;&quot;&gt;(Position)&lt;/span&gt;" style="text;strokeColor=none;fillColor=none;align=left;verticalAlign=middle;spacingLeft=4;spacingRight=4;overflow=hidden;points=[[0,0.5],[1,0.5]];portConstraint=eastwest;rotatable=0;whiteSpace=wrap;html=1;" vertex="1" parent="l3cAIBGjcBq7NKEZEbhi-106">
          <mxGeometry y="30" width="120" height="20" as="geometry" />
        </mxCell>
        <mxCell id="l3cAIBGjcBq7NKEZEbhi-108" value="" style="endArrow=none;html=1;rounded=0;fontSize=12;startSize=8;endSize=8;curved=1;exitX=-0.004;exitY=0.004;exitDx=0;exitDy=0;exitPerimeter=0;entryX=0.997;entryY=0.004;entryDx=0;entryDy=0;entryPerimeter=0;" edge="1" parent="l3cAIBGjcBq7NKEZEbhi-106" source="l3cAIBGjcBq7NKEZEbhi-109" target="l3cAIBGjcBq7NKEZEbhi-109">
          <mxGeometry width="50" height="50" relative="1" as="geometry">
            <mxPoint x="30" y="100" as="sourcePoint" />
            <mxPoint x="80" y="50" as="targetPoint" />
          </mxGeometry>
        </mxCell>
        <mxCell id="l3cAIBGjcBq7NKEZEbhi-109" value="boolean add(Card)" style="text;strokeColor=none;fillColor=none;align=left;verticalAlign=middle;spacingLeft=4;spacingRight=4;overflow=hidden;points=[[0,0.5],[1,0.5]];portConstraint=eastwest;rotatable=0;whiteSpace=wrap;html=1;" vertex="1" parent="l3cAIBGjcBq7NKEZEbhi-106">
          <mxGeometry y="50" width="120" height="20" as="geometry" />
        </mxCell>
        <mxCell id="l3cAIBGjcBq7NKEZEbhi-111" value="&lt;meta charset=&quot;utf-8&quot;&gt;&lt;span style=&quot;color: rgb(0, 0, 0); font-family: Helvetica; font-size: 12px; font-style: normal; font-variant-ligatures: normal; font-variant-caps: normal; font-weight: 400; letter-spacing: normal; orphans: 2; text-align: left; text-indent: 0px; text-transform: none; widows: 2; word-spacing: 0px; -webkit-text-stroke-width: 0px; white-space: normal; background-color: rgb(236, 236, 236); text-decoration-thickness: initial; text-decoration-style: initial; text-decoration-color: initial; display: inline !important; float: none;&quot;&gt;void select(Position)&lt;/span&gt;" style="text;strokeColor=none;fillColor=none;align=left;verticalAlign=middle;spacingLeft=4;spacingRight=4;overflow=hidden;points=[[0,0.5],[1,0.5]];portConstraint=eastwest;rotatable=0;whiteSpace=wrap;html=1;" vertex="1" parent="l3cAIBGjcBq7NKEZEbhi-106">
          <mxGeometry y="70" width="120" height="20" as="geometry" />
        </mxCell>
        <mxCell id="l3cAIBGjcBq7NKEZEbhi-112" value="TablePile" style="swimlane;fontStyle=0;childLayout=stackLayout;horizontal=1;startSize=30;horizontalStack=0;resizeParent=1;resizeParentMax=0;resizeLast=0;collapsible=1;marginBottom=0;whiteSpace=wrap;html=1;" vertex="1" parent="1">
          <mxGeometry x="10" y="280" width="150" height="110" as="geometry" />
        </mxCell>
        <mxCell id="l3cAIBGjcBq7NKEZEbhi-113" value="&lt;span style=&quot;text-align: center;&quot;&gt;TablePile&lt;/span&gt;&lt;span style=&quot;text-align: center;&quot;&gt;(Position, count)&lt;/span&gt;" style="text;strokeColor=none;fillColor=none;align=left;verticalAlign=middle;spacingLeft=4;spacingRight=4;overflow=hidden;points=[[0,0.5],[1,0.5]];portConstraint=eastwest;rotatable=0;whiteSpace=wrap;html=1;" vertex="1" parent="l3cAIBGjcBq7NKEZEbhi-112">
          <mxGeometry y="30" width="150" height="20" as="geometry" />
        </mxCell>
        <mxCell id="l3cAIBGjcBq7NKEZEbhi-114" value="" style="endArrow=none;html=1;rounded=0;fontSize=12;startSize=8;endSize=8;curved=1;exitX=-0.004;exitY=0.004;exitDx=0;exitDy=0;exitPerimeter=0;entryX=0.997;entryY=0.004;entryDx=0;entryDy=0;entryPerimeter=0;" edge="1" parent="l3cAIBGjcBq7NKEZEbhi-112" source="l3cAIBGjcBq7NKEZEbhi-115" target="l3cAIBGjcBq7NKEZEbhi-115">
          <mxGeometry width="50" height="50" relative="1" as="geometry">
            <mxPoint x="30" y="100" as="sourcePoint" />
            <mxPoint x="80" y="50" as="targetPoint" />
          </mxGeometry>
        </mxCell>
        <mxCell id="l3cAIBGjcBq7NKEZEbhi-115" value="&lt;meta charset=&quot;utf-8&quot;&gt;&lt;span style=&quot;color: rgb(0, 0, 0); font-family: Helvetica; font-size: 12px; font-style: normal; font-variant-ligatures: normal; font-variant-caps: normal; font-weight: 400; letter-spacing: normal; orphans: 2; text-align: left; text-indent: 0px; text-transform: none; widows: 2; word-spacing: 0px; -webkit-text-stroke-width: 0px; white-space: normal; background-color: rgb(236, 236, 236); text-decoration-thickness: initial; text-decoration-style: initial; text-decoration-color: initial; display: inline !important; float: none;&quot;&gt;boolean canTake()&lt;/span&gt;" style="text;strokeColor=none;fillColor=none;align=left;verticalAlign=middle;spacingLeft=4;spacingRight=4;overflow=hidden;points=[[0,0.5],[1,0.5]];portConstraint=eastwest;rotatable=0;whiteSpace=wrap;html=1;" vertex="1" parent="l3cAIBGjcBq7NKEZEbhi-112">
          <mxGeometry y="50" width="150" height="20" as="geometry" />
        </mxCell>
        <mxCell id="l3cAIBGjcBq7NKEZEbhi-116" value="&lt;meta charset=&quot;utf-8&quot;&gt;&lt;span style=&quot;color: rgb(0, 0, 0); font-family: Helvetica; font-size: 12px; font-style: normal; font-variant-ligatures: normal; font-variant-caps: normal; font-weight: 400; letter-spacing: normal; orphans: 2; text-align: left; text-indent: 0px; text-transform: none; widows: 2; word-spacing: 0px; -webkit-text-stroke-width: 0px; white-space: normal; background-color: rgb(236, 236, 236); text-decoration-thickness: initial; text-decoration-style: initial; text-decoration-color: initial; display: inline !important; float: none;&quot;&gt;void select(Position)&lt;/span&gt;" style="text;strokeColor=none;fillColor=none;align=left;verticalAlign=middle;spacingLeft=4;spacingRight=4;overflow=hidden;points=[[0,0.5],[1,0.5]];portConstraint=eastwest;rotatable=0;whiteSpace=wrap;html=1;" vertex="1" parent="l3cAIBGjcBq7NKEZEbhi-112">
          <mxGeometry y="70" width="150" height="20" as="geometry" />
        </mxCell>
        <mxCell id="l3cAIBGjcBq7NKEZEbhi-117" value="&lt;span style=&quot;color: rgb(0, 0, 0); font-family: Helvetica; font-size: 12px; font-style: normal; font-variant-ligatures: normal; font-variant-caps: normal; font-weight: 400; letter-spacing: normal; orphans: 2; text-align: left; text-indent: 0px; text-transform: none; widows: 2; word-spacing: 0px; -webkit-text-stroke-width: 0px; white-space: normal; background-color: rgb(236, 236, 236); text-decoration-thickness: initial; text-decoration-style: initial; text-decoration-color: initial; float: none; display: inline !important;&quot;&gt;void display()&lt;/span&gt;" style="text;strokeColor=none;fillColor=none;align=left;verticalAlign=middle;spacingLeft=4;spacingRight=4;overflow=hidden;points=[[0,0.5],[1,0.5]];portConstraint=eastwest;rotatable=0;whiteSpace=wrap;html=1;" vertex="1" parent="l3cAIBGjcBq7NKEZEbhi-112">
          <mxGeometry y="90" width="150" height="20" as="geometry" />
        </mxCell>
        <mxCell id="l3cAIBGjcBq7NKEZEbhi-135" value="Player" style="swimlane;fontStyle=0;childLayout=stackLayout;horizontal=1;startSize=30;horizontalStack=0;resizeParent=1;resizeParentMax=0;resizeLast=0;collapsible=1;marginBottom=0;whiteSpace=wrap;html=1;" vertex="1" parent="1">
          <mxGeometry x="440" y="530" width="120" height="110" as="geometry" />
        </mxCell>
        <mxCell id="l3cAIBGjcBq7NKEZEbhi-136" value="var nickname: String" style="text;strokeColor=none;fillColor=none;align=left;verticalAlign=middle;spacingLeft=4;spacingRight=4;overflow=hidden;points=[[0,0.5],[1,0.5]];portConstraint=eastwest;rotatable=0;whiteSpace=wrap;html=1;" vertex="1" parent="l3cAIBGjcBq7NKEZEbhi-135">
          <mxGeometry y="30" width="120" height="20" as="geometry" />
        </mxCell>
        <mxCell id="l3cAIBGjcBq7NKEZEbhi-137" value="var name: String" style="text;strokeColor=none;fillColor=none;align=left;verticalAlign=middle;spacingLeft=4;spacingRight=4;overflow=hidden;points=[[0,0.5],[1,0.5]];portConstraint=eastwest;rotatable=0;whiteSpace=wrap;html=1;" vertex="1" parent="l3cAIBGjcBq7NKEZEbhi-135">
          <mxGeometry y="50" width="120" height="20" as="geometry" />
        </mxCell>
        <mxCell id="l3cAIBGjcBq7NKEZEbhi-160" value="var score: int" style="text;strokeColor=none;fillColor=none;align=left;verticalAlign=middle;spacingLeft=4;spacingRight=4;overflow=hidden;points=[[0,0.5],[1,0.5]];portConstraint=eastwest;rotatable=0;whiteSpace=wrap;html=1;" vertex="1" parent="l3cAIBGjcBq7NKEZEbhi-135">
          <mxGeometry y="70" width="120" height="20" as="geometry" />
        </mxCell>
        <mxCell id="l3cAIBGjcBq7NKEZEbhi-138" value="&lt;span style=&quot;text-align: center;&quot;&gt;Player&lt;/span&gt;(String)" style="text;strokeColor=none;fillColor=none;align=left;verticalAlign=middle;spacingLeft=4;spacingRight=4;overflow=hidden;points=[[0,0.5],[1,0.5]];portConstraint=eastwest;rotatable=0;whiteSpace=wrap;html=1;" vertex="1" parent="l3cAIBGjcBq7NKEZEbhi-135">
          <mxGeometry y="90" width="120" height="20" as="geometry" />
        </mxCell>
        <mxCell id="l3cAIBGjcBq7NKEZEbhi-146" value="" style="endArrow=none;html=1;rounded=0;fontSize=12;startSize=8;endSize=8;curved=1;exitX=-0.002;exitY=0.009;exitDx=0;exitDy=0;exitPerimeter=0;entryX=0.998;entryY=-0.001;entryDx=0;entryDy=0;entryPerimeter=0;" edge="1" parent="l3cAIBGjcBq7NKEZEbhi-135" source="l3cAIBGjcBq7NKEZEbhi-138" target="l3cAIBGjcBq7NKEZEbhi-138">
          <mxGeometry width="50" height="50" relative="1" as="geometry">
            <mxPoint x="70" y="50" as="sourcePoint" />
            <mxPoint x="120" as="targetPoint" />
          </mxGeometry>
        </mxCell>
        <mxCell id="l3cAIBGjcBq7NKEZEbhi-148" value="History" style="swimlane;fontStyle=0;childLayout=stackLayout;horizontal=1;startSize=30;horizontalStack=0;resizeParent=1;resizeParentMax=0;resizeLast=0;collapsible=1;marginBottom=0;whiteSpace=wrap;html=1;" vertex="1" parent="1">
          <mxGeometry x="485" y="440" width="130" height="70" as="geometry" />
        </mxCell>
        <mxCell id="l3cAIBGjcBq7NKEZEbhi-149" value="var history: LinkedList" style="text;strokeColor=none;fillColor=none;align=left;verticalAlign=middle;spacingLeft=4;spacingRight=4;overflow=hidden;points=[[0,0.5],[1,0.5]];portConstraint=eastwest;rotatable=0;whiteSpace=wrap;html=1;" vertex="1" parent="l3cAIBGjcBq7NKEZEbhi-148">
          <mxGeometry y="30" width="130" height="20" as="geometry" />
        </mxCell>
        <mxCell id="l3cAIBGjcBq7NKEZEbhi-151" value="&lt;span style=&quot;text-align: center;&quot;&gt;History()&lt;/span&gt;" style="text;strokeColor=none;fillColor=none;align=left;verticalAlign=middle;spacingLeft=4;spacingRight=4;overflow=hidden;points=[[0,0.5],[1,0.5]];portConstraint=eastwest;rotatable=0;whiteSpace=wrap;html=1;" vertex="1" parent="l3cAIBGjcBq7NKEZEbhi-148">
          <mxGeometry y="50" width="130" height="20" as="geometry" />
        </mxCell>
        <mxCell id="l3cAIBGjcBq7NKEZEbhi-152" value="" style="endArrow=none;html=1;rounded=0;fontSize=12;startSize=8;endSize=8;curved=1;exitX=-0.002;exitY=0.009;exitDx=0;exitDy=0;exitPerimeter=0;entryX=0.998;entryY=-0.001;entryDx=0;entryDy=0;entryPerimeter=0;" edge="1" parent="l3cAIBGjcBq7NKEZEbhi-148" source="l3cAIBGjcBq7NKEZEbhi-151" target="l3cAIBGjcBq7NKEZEbhi-151">
          <mxGeometry width="50" height="50" relative="1" as="geometry">
            <mxPoint x="70" y="50" as="sourcePoint" />
            <mxPoint x="120" as="targetPoint" />
          </mxGeometry>
        </mxCell>
        <mxCell id="l3cAIBGjcBq7NKEZEbhi-164" value="Обобщение" style="endArrow=block;endSize=16;endFill=0;html=1;rounded=0;fontSize=12;curved=1;" edge="1" parent="1" source="l3cAIBGjcBq7NKEZEbhi-85" target="l3cAIBGjcBq7NKEZEbhi-70">
          <mxGeometry x="-0.246" width="160" relative="1" as="geometry">
            <mxPoint x="750" y="-160" as="sourcePoint" />
            <mxPoint x="910" y="-160" as="targetPoint" />
            <mxPoint as="offset" />
          </mxGeometry>
        </mxCell>
        <mxCell id="l3cAIBGjcBq7NKEZEbhi-165" value="Обобщение" style="endArrow=block;endSize=16;endFill=0;html=1;rounded=0;fontSize=12;curved=1;" edge="1" parent="1" source="l3cAIBGjcBq7NKEZEbhi-102" target="l3cAIBGjcBq7NKEZEbhi-70">
          <mxGeometry x="-0.246" width="160" relative="1" as="geometry">
            <mxPoint x="980" y="-39" as="sourcePoint" />
            <mxPoint x="874" y="-40" as="targetPoint" />
            <mxPoint as="offset" />
          </mxGeometry>
        </mxCell>
        <mxCell id="l3cAIBGjcBq7NKEZEbhi-166" value="Обобщение" style="endArrow=block;endSize=16;endFill=0;html=1;rounded=0;fontSize=12;curved=1;" edge="1" parent="1" source="l3cAIBGjcBq7NKEZEbhi-106" target="l3cAIBGjcBq7NKEZEbhi-70">
          <mxGeometry x="-0.246" width="160" relative="1" as="geometry">
            <mxPoint x="980" y="61" as="sourcePoint" />
            <mxPoint x="874" y="60" as="targetPoint" />
            <mxPoint as="offset" />
          </mxGeometry>
        </mxCell>
        <mxCell id="l3cAIBGjcBq7NKEZEbhi-167" value="Обобщение" style="endArrow=block;endSize=16;endFill=0;html=1;rounded=0;fontSize=12;curved=1;" edge="1" parent="1" source="l3cAIBGjcBq7NKEZEbhi-112" target="l3cAIBGjcBq7NKEZEbhi-70">
          <mxGeometry x="-0.246" width="160" relative="1" as="geometry">
            <mxPoint x="980" y="161" as="sourcePoint" />
            <mxPoint x="874" y="160" as="targetPoint" />
            <mxPoint as="offset" />
          </mxGeometry>
        </mxCell>
        <mxCell id="l3cAIBGjcBq7NKEZEbhi-169" value="" style="endArrow=block;startArrow=block;endFill=1;startFill=1;html=1;rounded=0;fontSize=12;startSize=8;endSize=8;curved=1;" edge="1" parent="1" source="l3cAIBGjcBq7NKEZEbhi-70" target="l3cAIBGjcBq7NKEZEbhi-78">
          <mxGeometry width="160" relative="1" as="geometry">
            <mxPoint x="1100" y="50" as="sourcePoint" />
            <mxPoint x="1550" y="-130" as="targetPoint" />
          </mxGeometry>
        </mxCell>
        <mxCell id="l3cAIBGjcBq7NKEZEbhi-175" value="" style="endArrow=block;startArrow=block;endFill=1;startFill=1;html=1;rounded=0;fontSize=12;startSize=8;endSize=8;curved=1;" edge="1" parent="1" source="l3cAIBGjcBq7NKEZEbhi-56" target="l3cAIBGjcBq7NKEZEbhi-64">
          <mxGeometry width="160" relative="1" as="geometry">
            <mxPoint x="1360" y="-271" as="sourcePoint" />
            <mxPoint x="1820" y="-320" as="targetPoint" />
          </mxGeometry>
        </mxCell>
        <mxCell id="l3cAIBGjcBq7NKEZEbhi-188" value="Use" style="endArrow=open;endSize=12;dashed=1;html=1;rounded=0;fontSize=12;curved=1;" edge="1" parent="1" source="l3cAIBGjcBq7NKEZEbhi-118" target="l3cAIBGjcBq7NKEZEbhi-148">
          <mxGeometry width="160" relative="1" as="geometry">
            <mxPoint x="1240" y="360" as="sourcePoint" />
            <mxPoint x="1400" y="360" as="targetPoint" />
          </mxGeometry>
        </mxCell>
        <mxCell id="l3cAIBGjcBq7NKEZEbhi-190" value="" style="endArrow=block;startArrow=block;endFill=1;startFill=1;html=1;rounded=0;fontSize=12;startSize=8;endSize=8;curved=1;" edge="1" parent="1" source="l3cAIBGjcBq7NKEZEbhi-70" target="l3cAIBGjcBq7NKEZEbhi-118">
          <mxGeometry width="160" relative="1" as="geometry">
            <mxPoint x="1000" y="-170" as="sourcePoint" />
            <mxPoint x="1160" y="-170" as="targetPoint" />
          </mxGeometry>
        </mxCell>
        <mxCell id="l3cAIBGjcBq7NKEZEbhi-118" value="Solitare" style="swimlane;fontStyle=0;childLayout=stackLayout;horizontal=1;startSize=30;horizontalStack=0;resizeParent=1;resizeParentMax=0;resizeLast=0;collapsible=1;marginBottom=0;whiteSpace=wrap;html=1;" vertex="1" parent="1">
          <mxGeometry x="220" y="440" width="160" height="230" as="geometry" />
        </mxCell>
        <mxCell id="l3cAIBGjcBq7NKEZEbhi-119" value="var deckPile: DeckPile" style="text;strokeColor=none;fillColor=none;align=left;verticalAlign=middle;spacingLeft=4;spacingRight=4;overflow=hidden;points=[[0,0.5],[1,0.5]];portConstraint=eastwest;rotatable=0;whiteSpace=wrap;html=1;" vertex="1" parent="l3cAIBGjcBq7NKEZEbhi-118">
          <mxGeometry y="30" width="160" height="20" as="geometry" />
        </mxCell>
        <mxCell id="l3cAIBGjcBq7NKEZEbhi-120" value="var discardPile: DiscardPile" style="text;strokeColor=none;fillColor=none;align=left;verticalAlign=middle;spacingLeft=4;spacingRight=4;overflow=hidden;points=[[0,0.5],[1,0.5]];portConstraint=eastwest;rotatable=0;whiteSpace=wrap;html=1;" vertex="1" parent="l3cAIBGjcBq7NKEZEbhi-118">
          <mxGeometry y="50" width="160" height="20" as="geometry" />
        </mxCell>
        <mxCell id="l3cAIBGjcBq7NKEZEbhi-131" value="var t&lt;span style=&quot;text-align: center;&quot;&gt;ablePiles&lt;/span&gt;: [&lt;span style=&quot;text-align: center;&quot;&gt;TablePile]&lt;/span&gt;" style="text;strokeColor=none;fillColor=none;align=left;verticalAlign=middle;spacingLeft=4;spacingRight=4;overflow=hidden;points=[[0,0.5],[1,0.5]];portConstraint=eastwest;rotatable=0;whiteSpace=wrap;html=1;" vertex="1" parent="l3cAIBGjcBq7NKEZEbhi-118">
          <mxGeometry y="70" width="160" height="20" as="geometry" />
        </mxCell>
        <mxCell id="l3cAIBGjcBq7NKEZEbhi-132" value="var s&lt;span style=&quot;text-align: center;&quot;&gt;uitPiles&lt;/span&gt;: [&lt;span style=&quot;text-align: center;&quot;&gt;SuitPile&lt;/span&gt;&lt;span style=&quot;text-align: center;&quot;&gt;]&lt;/span&gt;" style="text;strokeColor=none;fillColor=none;align=left;verticalAlign=middle;spacingLeft=4;spacingRight=4;overflow=hidden;points=[[0,0.5],[1,0.5]];portConstraint=eastwest;rotatable=0;whiteSpace=wrap;html=1;" vertex="1" parent="l3cAIBGjcBq7NKEZEbhi-118">
          <mxGeometry y="90" width="160" height="20" as="geometry" />
        </mxCell>
        <mxCell id="l3cAIBGjcBq7NKEZEbhi-133" value="var s&lt;span style=&quot;text-align: center;&quot;&gt;uitPiles&lt;/span&gt;: [&lt;span style=&quot;text-align: center;&quot;&gt;SuitPile&lt;/span&gt;&lt;span style=&quot;text-align: center;&quot;&gt;]&lt;/span&gt;" style="text;strokeColor=none;fillColor=none;align=left;verticalAlign=middle;spacingLeft=4;spacingRight=4;overflow=hidden;points=[[0,0.5],[1,0.5]];portConstraint=eastwest;rotatable=0;whiteSpace=wrap;html=1;" vertex="1" parent="l3cAIBGjcBq7NKEZEbhi-118">
          <mxGeometry y="110" width="160" height="20" as="geometry" />
        </mxCell>
        <mxCell id="l3cAIBGjcBq7NKEZEbhi-134" value="var all&lt;span style=&quot;text-align: center;&quot;&gt;Piles&lt;/span&gt;: [Card&lt;span style=&quot;text-align: center;&quot;&gt;Pile&lt;/span&gt;&lt;span style=&quot;text-align: center;&quot;&gt;]&lt;/span&gt;" style="text;strokeColor=none;fillColor=none;align=left;verticalAlign=middle;spacingLeft=4;spacingRight=4;overflow=hidden;points=[[0,0.5],[1,0.5]];portConstraint=eastwest;rotatable=0;whiteSpace=wrap;html=1;" vertex="1" parent="l3cAIBGjcBq7NKEZEbhi-118">
          <mxGeometry y="130" width="160" height="20" as="geometry" />
        </mxCell>
        <mxCell id="l3cAIBGjcBq7NKEZEbhi-212" value="var player: Player" style="text;strokeColor=none;fillColor=none;align=left;verticalAlign=middle;spacingLeft=4;spacingRight=4;overflow=hidden;points=[[0,0.5],[1,0.5]];portConstraint=eastwest;rotatable=0;whiteSpace=wrap;html=1;" vertex="1" parent="l3cAIBGjcBq7NKEZEbhi-118">
          <mxGeometry y="150" width="160" height="20" as="geometry" />
        </mxCell>
        <mxCell id="l3cAIBGjcBq7NKEZEbhi-121" value="&lt;span style=&quot;text-align: center;&quot;&gt;Solitare()&lt;/span&gt;" style="text;strokeColor=none;fillColor=none;align=left;verticalAlign=middle;spacingLeft=4;spacingRight=4;overflow=hidden;points=[[0,0.5],[1,0.5]];portConstraint=eastwest;rotatable=0;whiteSpace=wrap;html=1;" vertex="1" parent="l3cAIBGjcBq7NKEZEbhi-118">
          <mxGeometry y="170" width="160" height="20" as="geometry" />
        </mxCell>
        <mxCell id="l3cAIBGjcBq7NKEZEbhi-122" value="void paint(Graphics)" style="text;strokeColor=none;fillColor=none;align=left;verticalAlign=middle;spacingLeft=4;spacingRight=4;overflow=hidden;points=[[0,0.5],[1,0.5]];portConstraint=eastwest;rotatable=0;whiteSpace=wrap;html=1;" vertex="1" parent="l3cAIBGjcBq7NKEZEbhi-118">
          <mxGeometry y="190" width="160" height="20" as="geometry" />
        </mxCell>
        <mxCell id="l3cAIBGjcBq7NKEZEbhi-128" value="void react(Event, Position, History)" style="text;strokeColor=none;fillColor=none;align=left;verticalAlign=middle;spacingLeft=4;spacingRight=4;overflow=hidden;points=[[0,0.5],[1,0.5]];portConstraint=eastwest;rotatable=0;whiteSpace=wrap;html=1;" vertex="1" parent="l3cAIBGjcBq7NKEZEbhi-118">
          <mxGeometry y="210" width="160" height="20" as="geometry" />
        </mxCell>
        <mxCell id="l3cAIBGjcBq7NKEZEbhi-129" value="" style="endArrow=none;html=1;rounded=0;fontSize=12;startSize=8;endSize=8;curved=1;exitX=-0.002;exitY=0.009;exitDx=0;exitDy=0;exitPerimeter=0;entryX=0.998;entryY=-0.001;entryDx=0;entryDy=0;entryPerimeter=0;" edge="1" parent="l3cAIBGjcBq7NKEZEbhi-118" source="l3cAIBGjcBq7NKEZEbhi-121" target="l3cAIBGjcBq7NKEZEbhi-121">
          <mxGeometry width="50" height="50" relative="1" as="geometry">
            <mxPoint x="70" y="50" as="sourcePoint" />
            <mxPoint x="120" as="targetPoint" />
          </mxGeometry>
        </mxCell>
        <mxCell id="l3cAIBGjcBq7NKEZEbhi-130" value="" style="endArrow=none;html=1;rounded=0;fontSize=12;startSize=8;endSize=8;curved=1;exitX=0.001;exitY=-0.005;exitDx=0;exitDy=0;exitPerimeter=0;entryX=0.999;entryY=-0.001;entryDx=0;entryDy=0;entryPerimeter=0;" edge="1" parent="l3cAIBGjcBq7NKEZEbhi-118" source="l3cAIBGjcBq7NKEZEbhi-122" target="l3cAIBGjcBq7NKEZEbhi-122">
          <mxGeometry width="50" height="50" relative="1" as="geometry">
            <mxPoint x="30" y="160" as="sourcePoint" />
            <mxPoint x="80" y="110" as="targetPoint" />
          </mxGeometry>
        </mxCell>
        <mxCell id="l3cAIBGjcBq7NKEZEbhi-191" value="" style="endArrow=diamondThin;endFill=1;endSize=24;html=1;rounded=0;fontSize=12;curved=1;" edge="1" parent="1" source="l3cAIBGjcBq7NKEZEbhi-56" target="l3cAIBGjcBq7NKEZEbhi-47">
          <mxGeometry width="160" relative="1" as="geometry">
            <mxPoint x="810" y="-180" as="sourcePoint" />
            <mxPoint x="890" y="-180" as="targetPoint" />
          </mxGeometry>
        </mxCell>
        <mxCell id="l3cAIBGjcBq7NKEZEbhi-199" value="" style="endArrow=open;endFill=1;endSize=12;html=1;rounded=0;fontSize=12;curved=1;" edge="1" parent="1" source="l3cAIBGjcBq7NKEZEbhi-1" target="l3cAIBGjcBq7NKEZEbhi-47">
          <mxGeometry width="160" relative="1" as="geometry">
            <mxPoint x="1260" y="-102" as="sourcePoint" />
            <mxPoint x="1700" y="-140" as="targetPoint" />
          </mxGeometry>
        </mxCell>
        <mxCell id="l3cAIBGjcBq7NKEZEbhi-200" value="" style="endArrow=block;startArrow=block;endFill=1;startFill=1;html=1;rounded=0;fontSize=12;startSize=8;endSize=8;curved=1;" edge="1" parent="1" source="l3cAIBGjcBq7NKEZEbhi-78" target="l3cAIBGjcBq7NKEZEbhi-118">
          <mxGeometry width="160" relative="1" as="geometry">
            <mxPoint x="620" y="363" as="sourcePoint" />
            <mxPoint x="1580" y="-50" as="targetPoint" />
          </mxGeometry>
        </mxCell>
        <mxCell id="l3cAIBGjcBq7NKEZEbhi-202" value="Use" style="endArrow=open;endSize=12;dashed=1;html=1;rounded=0;fontSize=12;curved=1;" edge="1" parent="1" source="l3cAIBGjcBq7NKEZEbhi-1" target="l3cAIBGjcBq7NKEZEbhi-24">
          <mxGeometry width="160" relative="1" as="geometry">
            <mxPoint x="880" y="90" as="sourcePoint" />
            <mxPoint x="1040" y="90" as="targetPoint" />
          </mxGeometry>
        </mxCell>
        <mxCell id="l3cAIBGjcBq7NKEZEbhi-203" value="Use" style="endArrow=open;endSize=12;dashed=1;html=1;rounded=0;fontSize=12;curved=1;" edge="1" parent="1" source="l3cAIBGjcBq7NKEZEbhi-1" target="l3cAIBGjcBq7NKEZEbhi-7">
          <mxGeometry width="160" relative="1" as="geometry">
            <mxPoint x="1120" y="-43" as="sourcePoint" />
            <mxPoint x="1070" y="-70" as="targetPoint" />
          </mxGeometry>
        </mxCell>
        <mxCell id="l3cAIBGjcBq7NKEZEbhi-204" value="Use" style="endArrow=open;endSize=12;dashed=1;html=1;rounded=0;fontSize=12;curved=1;" edge="1" parent="1" source="l3cAIBGjcBq7NKEZEbhi-1" target="l3cAIBGjcBq7NKEZEbhi-40">
          <mxGeometry width="160" relative="1" as="geometry">
            <mxPoint x="1170" y="-13" as="sourcePoint" />
            <mxPoint x="1120" y="-40" as="targetPoint" />
          </mxGeometry>
        </mxCell>
        <mxCell id="l3cAIBGjcBq7NKEZEbhi-205" value="Use" style="endArrow=open;endSize=12;dashed=1;html=1;rounded=0;fontSize=12;curved=1;" edge="1" parent="1" source="l3cAIBGjcBq7NKEZEbhi-1" target="l3cAIBGjcBq7NKEZEbhi-35">
          <mxGeometry width="160" relative="1" as="geometry">
            <mxPoint x="1220" y="-83" as="sourcePoint" />
            <mxPoint x="1170" y="-110" as="targetPoint" />
          </mxGeometry>
        </mxCell>
        <mxCell id="l3cAIBGjcBq7NKEZEbhi-206" value="" style="endArrow=diamondThin;endFill=0;endSize=24;html=1;rounded=0;fontSize=12;curved=1;" edge="1" parent="1" source="l3cAIBGjcBq7NKEZEbhi-70" target="l3cAIBGjcBq7NKEZEbhi-56">
          <mxGeometry width="160" relative="1" as="geometry">
            <mxPoint x="680" y="60" as="sourcePoint" />
            <mxPoint x="840" y="60" as="targetPoint" />
          </mxGeometry>
        </mxCell>
        <mxCell id="l3cAIBGjcBq7NKEZEbhi-207" value="" style="endArrow=diamondThin;endFill=1;endSize=24;html=1;rounded=0;fontSize=12;curved=1;" edge="1" parent="1" source="l3cAIBGjcBq7NKEZEbhi-148" target="l3cAIBGjcBq7NKEZEbhi-56">
          <mxGeometry width="160" relative="1" as="geometry">
            <mxPoint x="1023" y="-85" as="sourcePoint" />
            <mxPoint x="1020" y="-130" as="targetPoint" />
          </mxGeometry>
        </mxCell>
        <mxCell id="l3cAIBGjcBq7NKEZEbhi-208" value="" style="endArrow=diamondThin;endFill=1;endSize=24;html=1;rounded=0;fontSize=12;curved=1;" edge="1" parent="1" source="l3cAIBGjcBq7NKEZEbhi-118" target="l3cAIBGjcBq7NKEZEbhi-85">
          <mxGeometry width="160" relative="1" as="geometry">
            <mxPoint x="1140" y="10" as="sourcePoint" />
            <mxPoint x="1010" y="49" as="targetPoint" />
          </mxGeometry>
        </mxCell>
        <mxCell id="l3cAIBGjcBq7NKEZEbhi-209" value="" style="endArrow=diamondThin;endFill=1;endSize=24;html=1;rounded=0;fontSize=12;curved=1;" edge="1" parent="1" source="l3cAIBGjcBq7NKEZEbhi-118" target="l3cAIBGjcBq7NKEZEbhi-102">
          <mxGeometry width="160" relative="1" as="geometry">
            <mxPoint x="1310" y="250" as="sourcePoint" />
            <mxPoint x="950" y="300" as="targetPoint" />
          </mxGeometry>
        </mxCell>
        <mxCell id="l3cAIBGjcBq7NKEZEbhi-210" value="" style="endArrow=diamondThin;endFill=1;endSize=24;html=1;rounded=0;fontSize=12;curved=1;" edge="1" parent="1" source="l3cAIBGjcBq7NKEZEbhi-118" target="l3cAIBGjcBq7NKEZEbhi-106">
          <mxGeometry width="160" relative="1" as="geometry">
            <mxPoint x="1300" y="340" as="sourcePoint" />
            <mxPoint x="940" y="452" as="targetPoint" />
          </mxGeometry>
        </mxCell>
        <mxCell id="l3cAIBGjcBq7NKEZEbhi-211" value="" style="endArrow=diamondThin;endFill=1;endSize=24;html=1;rounded=0;fontSize=12;curved=1;" edge="1" parent="1" source="l3cAIBGjcBq7NKEZEbhi-118" target="l3cAIBGjcBq7NKEZEbhi-112">
          <mxGeometry width="160" relative="1" as="geometry">
            <mxPoint x="1250" y="440" as="sourcePoint" />
            <mxPoint x="890" y="552" as="targetPoint" />
          </mxGeometry>
        </mxCell>
        <mxCell id="l3cAIBGjcBq7NKEZEbhi-213" value="" style="endArrow=diamondThin;endFill=1;endSize=24;html=1;rounded=0;fontSize=12;curved=1;" edge="1" parent="1" source="l3cAIBGjcBq7NKEZEbhi-118" target="l3cAIBGjcBq7NKEZEbhi-135">
          <mxGeometry width="160" relative="1" as="geometry">
            <mxPoint x="1020" y="-70" as="sourcePoint" />
            <mxPoint x="1180" y="-70" as="targetPoint" />
          </mxGeometry>
        </mxCell>
      </root>
    </mxGraphModel>
  </diagram>
</mxfile>
